<!-- Generator: Adobe Illustrator 25.0.1, SVG Export Plug-In  -->
<svg version="1.1" xmlns="http://www.w3.org/2000/svg" xmlns:xlink="http://www.w3.org/1999/xlink" x="0px" y="0px"
	 width="230.177px" height="154.47px" viewBox="0 0 230.177 154.47"
	 style="overflow:visible;enable-background:new 0 0 230.177 154.47;" xml:space="preserve">
<style type="text/css">
	.st0{fill:#282828;}
</style>
<defs>
</defs>
<g id="edVN4u.tif_1_">
	<g>
		<path class="st0" d="M141.328,71.805c26.686,26.698,53.285,53.309,79.987,80.023c-2.129,1.513-4.647,2.239-7.304,2.531
			c-1.146,0.126-2.312,0.092-3.47,0.092c-63.734,0.004-127.469-0.003-191.203,0.02c-3.219,0.001-6.314-0.381-9.207-1.864
			c-0.472-0.242-0.921-0.527-1.366-0.783c26.707-26.719,53.311-53.334,80.033-80.068c3.616,2.69,7.277,5.4,10.922,8.131
			c3.89,2.914,7.745,5.874,11.652,8.765c2.132,1.578,5.222,1.524,7.531-0.156c4.227-3.075,8.409-6.213,12.601-9.335
			C134.768,76.73,138.02,74.283,141.328,71.805z"/>
		<path class="st0" d="M9.33,1.918c2.315-0.606,4.616-1.28,6.953-1.787c0.994-0.215,2.063-0.1,3.099-0.1
			c63.906-0.003,127.812,0.003,191.718-0.02c3.412-0.001,6.635,0.537,9.913,2.384c-2.476,1.868-4.768,3.616-7.078,5.339
			c-31.479,23.484-62.96,46.966-94.444,70.443c-3.333,2.485-5.512,2.446-8.899-0.079C77.5,53.419,44.405,28.742,11.312,4.06
			c-0.666-0.497-1.298-1.039-1.946-1.56C9.354,2.306,9.342,2.112,9.33,1.918z"/>
		<path class="st0" d="M227.358,145.959c-26.443-26.438-52.787-52.776-79.249-79.232c26.184-19.533,52.428-39.109,78.806-58.787
			c1.666,2.112,2.519,4.477,2.939,6.996c0.229,1.374,0.306,2.788,0.306,4.184c0.016,38.748,0.01,77.495,0.017,116.243
			C230.178,139.148,229.51,142.733,227.358,145.959z"/>
		<path class="st0" d="M3.203,7.896c26.434,19.719,52.679,39.296,78.872,58.834c-26.453,26.458-52.793,52.803-79.223,79.238
			c-2.116-3.028-2.836-6.532-2.843-10.232c-0.015-7.311-0.002-14.622-0.002-21.933c0-31.62,0.002-63.239-0.006-94.859
			C-0.001,15.028,0.817,11.367,3.203,7.896z"/>
	</g>
</g>
</svg>